<mxfile host="app.diagrams.net" agent="Mozilla/5.0 (Windows NT 10.0; Win64; x64) AppleWebKit/537.36 (KHTML, like Gecko) Chrome/134.0.0.0 Safari/537.36" version="26.1.0">
  <diagram name="페이지-1" id="Y3afxjZWW4zyLFOU6sZO">
    <mxGraphModel dx="472" dy="891" grid="1" gridSize="10" guides="1" tooltips="1" connect="1" arrows="1" fold="1" page="1" pageScale="1" pageWidth="827" pageHeight="1169" math="0" shadow="0">
      <root>
        <mxCell id="0" />
        <mxCell id="1" parent="0" />
        <mxCell id="suCbh8quYtrZxMJA4_Ge-2" value="" style="rounded=0;whiteSpace=wrap;html=1;strokeColor=none;" vertex="1" parent="1">
          <mxGeometry x="70" y="350" width="300" height="120" as="geometry" />
        </mxCell>
        <mxCell id="suCbh8quYtrZxMJA4_Ge-1" value="a&lt;sub&gt;i-2&lt;/sub&gt;" style="ellipse;whiteSpace=wrap;html=1;aspect=fixed;fontSize=25;" vertex="1" parent="1">
          <mxGeometry x="90" y="370" width="80" height="80" as="geometry" />
        </mxCell>
        <mxCell id="suCbh8quYtrZxMJA4_Ge-3" value="a&lt;sub&gt;i-1&lt;/sub&gt;" style="ellipse;whiteSpace=wrap;html=1;aspect=fixed;fontSize=25;" vertex="1" parent="1">
          <mxGeometry x="180" y="370" width="80" height="80" as="geometry" />
        </mxCell>
        <mxCell id="suCbh8quYtrZxMJA4_Ge-4" value="a&lt;sub&gt;i&lt;/sub&gt;" style="ellipse;whiteSpace=wrap;html=1;aspect=fixed;fontSize=25;" vertex="1" parent="1">
          <mxGeometry x="270" y="370" width="80" height="80" as="geometry" />
        </mxCell>
        <mxCell id="suCbh8quYtrZxMJA4_Ge-5" value="" style="rounded=0;whiteSpace=wrap;html=1;strokeColor=none;" vertex="1" parent="1">
          <mxGeometry x="70" y="510" width="340" height="120" as="geometry" />
        </mxCell>
        <mxCell id="suCbh8quYtrZxMJA4_Ge-6" value="a&lt;sub&gt;i-2&lt;/sub&gt;" style="ellipse;whiteSpace=wrap;html=1;aspect=fixed;fontSize=25;" vertex="1" parent="1">
          <mxGeometry x="90" y="530" width="80" height="80" as="geometry" />
        </mxCell>
        <mxCell id="suCbh8quYtrZxMJA4_Ge-7" value="a&lt;sub&gt;i-1&lt;/sub&gt;" style="ellipse;whiteSpace=wrap;html=1;aspect=fixed;fontSize=25;" vertex="1" parent="1">
          <mxGeometry x="200" y="530" width="80" height="80" as="geometry" />
        </mxCell>
        <mxCell id="suCbh8quYtrZxMJA4_Ge-8" value="a&lt;sub&gt;i&lt;/sub&gt;" style="ellipse;whiteSpace=wrap;html=1;aspect=fixed;fontSize=25;fillColor=#dae8fc;strokeColor=#6c8ebf;" vertex="1" parent="1">
          <mxGeometry x="310" y="530" width="80" height="80" as="geometry" />
        </mxCell>
        <mxCell id="suCbh8quYtrZxMJA4_Ge-9" value="≥" style="text;html=1;align=center;verticalAlign=middle;whiteSpace=wrap;rounded=0;fontSize=25;" vertex="1" parent="1">
          <mxGeometry x="170" y="555" width="30" height="30" as="geometry" />
        </mxCell>
        <mxCell id="suCbh8quYtrZxMJA4_Ge-11" value="?" style="text;html=1;align=center;verticalAlign=middle;whiteSpace=wrap;rounded=0;fontSize=25;" vertex="1" parent="1">
          <mxGeometry x="280" y="555" width="30" height="30" as="geometry" />
        </mxCell>
      </root>
    </mxGraphModel>
  </diagram>
</mxfile>
